<svg xmlns="http://www.w3.org/2000/svg" viewBox="0 0 1277.33 1296"><defs><style>.a,.d{fill:#fff;}.a,.b,.d,.e{stroke:#000;stroke-miterlimit:10;}.a{stroke-width:11px;}.b,.f{fill:#f3e600;}.b,.d,.e{stroke-width:9px;}.c{fill:#da3223;}</style></defs><circle class="a" cx="644" cy="658" r="588"/><path class="b" d="M530.63,935.75,868.46,515.86a12,12,0,0,0-4.22-18.37l-80.51-38.08a12,12,0,0,0-9-.51l-15.81,5.38a4.9,4.9,0,0,1-6-6.73l96.67-205.82a12,12,0,0,0,.84-7.75L840,197.83a12,12,0,0,0-6.77-8.29L752.93,153.3a12,12,0,0,0-15.54,5.31l-15.68,29.58a12,12,0,0,1-7.24,5.9L599.67,227.6a12.06,12.06,0,0,1-7.28-.18l-26.74-9.24a12,12,0,0,0-11.5,2l-28.21,23a11.93,11.93,0,0,0-3.73,5.29l-6,16.76a13,13,0,0,0-.42,1.51L425.52,689.09a12,12,0,0,0,7.67,13.79L530.6,738a12,12,0,0,1,7.77,13.24L509.45,926.27C507.43,938.44,522.9,945.36,530.63,935.75Z"/><path class="c" d="M706.2,208.54,528.91,262.82A5.57,5.57,0,0,0,525.1,267L437.38,684.25a5.55,5.55,0,0,0,7.32,6.36L566,646.71a5.55,5.55,0,0,1,7.32,6.34L519.48,913.19c-1.29,6.23,7.23,9.37,10.29,3.79L765.2,488.5a5.55,5.55,0,0,0-6.22-8.05l-141.66,35.7a5.55,5.55,0,0,1-6.59-7.21L713.06,215.67A5.55,5.55,0,0,0,706.2,208.54Z"/><path class="b" d="M472.67,394.67S417.33,562,411.33,722c-5.7,152.14,50,334,192,360,0,0,102.67-103.33,130.67-252.67s92.67-202.66,136-206,72.71,76.85,53.33,178c-20.22,105.56-74,321.56-310.89,365.56-62.77-1.22-97.44-8.22-145.77-27.56C379.11,1074,332.67,956,331.33,802s44-318,110.67-404.67C465.33,362.67,476.67,385.33,472.67,394.67Z"/><path class="c" d="M428,470.63c1.78-3.89,7.51-2.16,6.52,2-25.82,108.19-70.81,353.13,9.84,492,63.32,109.06,122.16,124.18,141.05,126.11a3.41,3.41,0,0,1,2.21,5.65c-11.41,12.94-47.93,40.85-124.26-9.76-95-63-107.45-286.39-104-375C362.33,634.67,400.33,530.67,428,470.63Z"/><path class="d" d="M743.41,198.24l3.86.16a4.73,4.73,0,0,1,1.81.45l71.7,33.88a5.89,5.89,0,0,1,.64.37l1.1.75a4.72,4.72,0,0,0,7.32-4.64l-1.71-10.71a4.72,4.72,0,0,0-4.21-4l-3.58-.34a4.74,4.74,0,0,1-3.37-1.92l-8.67-11.9a4.74,4.74,0,0,0-3.81-1.94h-8.21a4.71,4.71,0,0,1-3.19-1.24l-11-10.11a4.74,4.74,0,0,0-2.8-1.23l-13-1.09a4.82,4.82,0,0,1-2.17-.75l-9.55-6.2a4.72,4.72,0,0,0-5.44.2l-7.24,5.54a4.72,4.72,0,0,0-1.77,2.9L739,192.67A4.72,4.72,0,0,0,743.41,198.24Z"/><path class="e" d="M569.77,240.41,546.59,247a1.23,1.23,0,0,1-1.16-2.09l14.89-13.53a1.22,1.22,0,0,1,1.61,0l8.29,6.94A1.22,1.22,0,0,1,569.77,240.41Z"/><path class="f" d="M593.38,262c-3.06,4-4.49,9-3.09,12.75,1.29,3.48-.15,5.56-2,8.3-6,8.83-12.37,15.23-19.11,19.42-2.71,1.68-4.75,2.6-4.79-2.85,0-3.1-1.64-3.84-3.48-3.6-2.2.3-4.3,2.58-5.84,6.3s-1.71,6.79-.89,9.32c.89,2.77,2.53,3.85,5,1.94,2-1.56,3.63-3.26,4.49.48,3.42,14.8,4.79,31.17,3.4,50-.42,5.67-1.48,6.25-4,5.57-9-2.5-16.63-8.27-22.75-17.63-1.6-2.45-3.42-4.23-.37-10.9,2-4.43,1.56-8.88-.89-10.43-2.19-1.39-4.59.18-6.8,4.38-2.45,4.66-3.23,10.07-1.12,11.69,3.68,2.81,1.4,7.71-.52,13.1a116.86,116.86,0,0,1-12.68,25.6c-2.33,3.5-4.4,7.3-6.4,2.73-1.19-2.71-4.17-1.32-6.65,2.61a15.68,15.68,0,0,0-2.58,11c.7,4,3,5.64,5.35,2.73,5.58-6.84,6.29-1.22,7.63,3.27A74.26,74.26,0,0,1,517.79,432c-.17,3.93-.37,6.17-3.49,8.59S509.39,448.06,510,453c.53,4.44,2.52,5.54,5.56,3.33,3.47-2.51,5.42-7.61,5-12.05-.45-4.88,1.12-6.8,3.46-9.56,10.35-12.23,20.9-20.86,31.71-26.42,3.63-1.87,3.51,0,1.93,5.32a248.25,248.25,0,0,1-22.55,52.84c-1.45,2.53-2.48,4.33-4.14,2.65-2.56-2.58-5.67-.34-8.21,5.79-2.08,5.05-1.78,9.24.36,11,2.45,2,5.52.35,7.87-5.55,1.51-3.78,2.69-4.08,4.17-3.54,6.2,2.25,11,7.36,14.19,15.86.87,2.32,1.14,4-1.16,7.55-2.9,4.43-3.46,9.29-1.77,12.61,1.55,3,4.13,2.6,6.86-1.19,3-4.16,4-9.15,2.68-12.86-1-2.77-.12-4.39,1.5-6.85,6.58-10,13.61-16.82,21-21.18,2.06-1.21,3.2-.85,3.43,2.73.36,5.57,3.1,5.89,6.37,3,3.06-2.7,4.54-7.61,4.24-12-.35-5.26-2.75-6.53-6.23-3.28-2.23,2.08-2.85,1.08-3.45-1.31-3.61-14.33-4.77-30.71-3.61-49.08.38-5.95,1.64-7.15,4.7-6.23,8.83,2.64,16.22,8.49,22.28,17.63,1.67,2.52,3.22,4.39.09,10.81-2,4.13-1.36,8.32.65,10.05s4.71.49,7.16-4.12c2.27-4.28,3.24-9.61,1.4-11.2-4.36-3.78-1-10.31,1.29-16.45A108,108,0,0,1,629.54,387c1.82-2.58,3.26-5.05,4.77-1.8s4.44,2.37,7.3-2.19c2.43-3.88,3.24-8.15,2.24-11.62-1.19-4.1-3.89-4.31-6.78-.46-2.74,3.65-3.41,2.08-4.4-.26-3.18-7.58-4.52-17-4.14-28.12.12-3.33.16-6.52,3.43-9s4.93-7.52,4.43-12.41-2.72-5.95-6-3.16a14,14,0,0,0-4.64,12.22c.69,4.6-1.16,6.36-3.22,8.8-10.18,12-20.53,20.67-31.21,26.33-4.2,2.22-4.32.12-2.45-5.87a254.87,254.87,0,0,1,22-51.27c1.79-3.14,3-5.07,5-3.07,2.23,2.33,5.22-.11,7.44-5.29,2-4.66,2.4-9.39.25-11.47-2.31-2.25-5.33-1.15-7.84,4.76-1.84,4.35-3.29,4.66-5.08,3.91-5.81-2.43-10.4-7.31-13.44-15.41-.92-2.46-1.5-4.09,1.1-8.07,2.83-4.34,3.35-9.32,1.6-12.54C598.38,258.25,596,258.6,593.38,262Z"/></svg>